<svg  viewBox="0 0 400 400" fill="none" xmlns="http://www.w3.org/2000/svg">
<path d="M395 200C395 307.696 307.696 395 200 395C92.3045 395 5 307.696 5 200C5 92.3045 92.3045 5 200 5C307.696 5 395 92.3045 395 200Z" stroke="#F0E5E5" stroke-width="10"/>
<path d="M81.3625 233.416L46.6585 200.296L81.3625 167.32H97.9225L63.0745 200.296L97.9225 233.416H81.3625Z" fill="white"/>
<path d="M305.224 167.32H321.784L356.632 200.296L321.784 233.416H305.224L340.072 200.296L305.224 167.32Z" fill="white"/>
<path d="M264.663 234H249L258.668 200.5L268.337 167H284L264.663 234Z" fill="white"/>
<path d="M140.337 234H156L146.332 200.5L136.663 167H121L140.337 234Z" fill="white"/>
<path d="M202.56 218.048L218.524 168.545H229.783L206.67 233H198.271L174.919 168.545H186.178L202.56 218.048Z" fill="white"/>
</svg>
